<mxfile host="Electron" modified="2024-09-13T14:20:09.518Z" agent="Mozilla/5.0 (Macintosh; Intel Mac OS X 10_15_7) AppleWebKit/537.36 (KHTML, like Gecko) draw.io/23.0.2 Chrome/120.0.6099.109 Electron/28.1.0 Safari/537.36" etag="0J5AnAr0LA0QEchUWfzk" version="23.0.2" type="device">
  <diagram name="Page-1" id="vOQF9WbsSl7jddO1CPNE">
    <mxGraphModel dx="2954" dy="1267" grid="1" gridSize="10" guides="1" tooltips="1" connect="1" arrows="1" fold="1" page="1" pageScale="1" pageWidth="1400" pageHeight="700" math="0" shadow="0">
      <root>
        <mxCell id="0" />
        <mxCell id="1" parent="0" />
        <mxCell id="AZBeOW5vCCQePYE3pMwj-48" value="" style="rounded=1;whiteSpace=wrap;html=1;dashed=1;strokeWidth=1;" vertex="1" parent="1">
          <mxGeometry x="290" y="410" width="240" height="160" as="geometry" />
        </mxCell>
        <mxCell id="AZBeOW5vCCQePYE3pMwj-46" value="" style="rounded=1;whiteSpace=wrap;html=1;dashed=1;strokeWidth=1;" vertex="1" parent="1">
          <mxGeometry x="290" y="240" width="240" height="160" as="geometry" />
        </mxCell>
        <mxCell id="AZBeOW5vCCQePYE3pMwj-47" value="Cross-sectional Prediction Team" style="text;html=1;strokeColor=none;fillColor=none;align=center;verticalAlign=middle;whiteSpace=wrap;rounded=0;fontSize=12;fontStyle=1" vertex="1" parent="1">
          <mxGeometry x="308.5" y="225" width="195" height="15" as="geometry" />
        </mxCell>
        <mxCell id="AZBeOW5vCCQePYE3pMwj-3" value="" style="ellipse;whiteSpace=wrap;html=1;aspect=fixed;" vertex="1" parent="1">
          <mxGeometry x="367.5" y="285.5" width="90" height="90" as="geometry" />
        </mxCell>
        <mxCell id="AZBeOW5vCCQePYE3pMwj-1" value="" style="sketch=0;pointerEvents=1;shadow=0;dashed=0;html=1;strokeColor=none;labelPosition=center;verticalLabelPosition=bottom;verticalAlign=top;align=center;fillColor=#505050;shape=mxgraph.mscae.intune.account_portal" vertex="1" parent="1">
          <mxGeometry x="423.5" y="253" width="43" height="50" as="geometry" />
        </mxCell>
        <mxCell id="AZBeOW5vCCQePYE3pMwj-2" value="Agent 1.2" style="text;html=1;strokeColor=none;fillColor=none;align=center;verticalAlign=middle;whiteSpace=wrap;rounded=0;fontSize=14;" vertex="1" parent="1">
          <mxGeometry x="445" y="247.5" width="70" as="geometry" />
        </mxCell>
        <mxCell id="AZBeOW5vCCQePYE3pMwj-4" value="" style="sketch=0;pointerEvents=1;shadow=0;dashed=0;html=1;strokeColor=none;labelPosition=center;verticalLabelPosition=bottom;verticalAlign=top;align=center;fillColor=#505050;shape=mxgraph.mscae.intune.account_portal" vertex="1" parent="1">
          <mxGeometry x="423.5" y="348" width="43" height="50" as="geometry" />
        </mxCell>
        <mxCell id="AZBeOW5vCCQePYE3pMwj-5" value="Agent 1.3" style="text;html=1;strokeColor=none;fillColor=none;align=center;verticalAlign=middle;whiteSpace=wrap;rounded=0;fontSize=14;movable=1;resizable=1;rotatable=1;deletable=1;editable=1;locked=0;connectable=1;" vertex="1" parent="1">
          <mxGeometry x="353.5" y="380" width="70" height="20" as="geometry" />
        </mxCell>
        <mxCell id="AZBeOW5vCCQePYE3pMwj-6" value="" style="sketch=0;pointerEvents=1;shadow=0;dashed=0;html=1;strokeColor=none;labelPosition=center;verticalLabelPosition=bottom;verticalAlign=top;align=center;fillColor=#505050;shape=mxgraph.mscae.intune.account_portal" vertex="1" parent="1">
          <mxGeometry x="333.5" y="288" width="43" height="50" as="geometry" />
        </mxCell>
        <mxCell id="AZBeOW5vCCQePYE3pMwj-7" value="Agent 1.1" style="text;html=1;strokeColor=none;fillColor=none;align=center;verticalAlign=middle;whiteSpace=wrap;rounded=0;fontSize=14;" vertex="1" parent="1">
          <mxGeometry x="320" y="278" width="70" as="geometry" />
        </mxCell>
        <mxCell id="AZBeOW5vCCQePYE3pMwj-9" value="" style="ellipse;whiteSpace=wrap;html=1;aspect=fixed;" vertex="1" parent="1">
          <mxGeometry x="365" y="448" width="90" height="90" as="geometry" />
        </mxCell>
        <mxCell id="AZBeOW5vCCQePYE3pMwj-10" value="" style="sketch=0;pointerEvents=1;shadow=0;dashed=0;html=1;strokeColor=none;labelPosition=center;verticalLabelPosition=bottom;verticalAlign=top;align=center;fillColor=#505050;shape=mxgraph.mscae.intune.account_portal" vertex="1" parent="1">
          <mxGeometry x="423.5" y="423" width="43" height="50" as="geometry" />
        </mxCell>
        <mxCell id="AZBeOW5vCCQePYE3pMwj-11" value="Agent i.2" style="text;html=1;strokeColor=none;fillColor=none;align=center;verticalAlign=middle;whiteSpace=wrap;rounded=0;fontSize=14;" vertex="1" parent="1">
          <mxGeometry x="353.5" y="415.5" width="70" as="geometry" />
        </mxCell>
        <mxCell id="AZBeOW5vCCQePYE3pMwj-12" value="" style="sketch=0;pointerEvents=1;shadow=0;dashed=0;html=1;strokeColor=none;labelPosition=center;verticalLabelPosition=bottom;verticalAlign=top;align=center;fillColor=#505050;shape=mxgraph.mscae.intune.account_portal" vertex="1" parent="1">
          <mxGeometry x="423.5" y="513" width="43" height="50" as="geometry" />
        </mxCell>
        <mxCell id="AZBeOW5vCCQePYE3pMwj-13" value="Agent i.j" style="text;html=1;strokeColor=none;fillColor=none;align=center;verticalAlign=middle;whiteSpace=wrap;rounded=0;fontSize=14;" vertex="1" parent="1">
          <mxGeometry x="460" y="550" width="70" height="20" as="geometry" />
        </mxCell>
        <mxCell id="AZBeOW5vCCQePYE3pMwj-14" value="" style="sketch=0;pointerEvents=1;shadow=0;dashed=0;html=1;strokeColor=none;labelPosition=center;verticalLabelPosition=bottom;verticalAlign=top;align=center;fillColor=#505050;shape=mxgraph.mscae.intune.account_portal" vertex="1" parent="1">
          <mxGeometry x="333.5" y="453" width="43" height="50" as="geometry" />
        </mxCell>
        <mxCell id="AZBeOW5vCCQePYE3pMwj-15" value="Agent i.1" style="text;html=1;strokeColor=none;fillColor=none;align=center;verticalAlign=middle;whiteSpace=wrap;rounded=0;fontSize=14;" vertex="1" parent="1">
          <mxGeometry x="312.5" y="513" width="70" as="geometry" />
        </mxCell>
        <mxCell id="AZBeOW5vCCQePYE3pMwj-17" value="Debate" style="text;html=1;strokeColor=none;fillColor=none;align=center;verticalAlign=middle;whiteSpace=wrap;rounded=0;fontSize=14;" vertex="1" parent="1">
          <mxGeometry x="377.5" y="329.5" width="70" height="2" as="geometry" />
        </mxCell>
        <mxCell id="AZBeOW5vCCQePYE3pMwj-18" value="Debate" style="text;html=1;strokeColor=none;fillColor=none;align=center;verticalAlign=middle;whiteSpace=wrap;rounded=0;fontSize=14;" vertex="1" parent="1">
          <mxGeometry x="375" y="493" width="70" as="geometry" />
        </mxCell>
        <mxCell id="AZBeOW5vCCQePYE3pMwj-19" value="" style="shape=datastore;whiteSpace=wrap;html=1;" vertex="1" parent="1">
          <mxGeometry x="240" y="380" width="40" height="40" as="geometry" />
        </mxCell>
        <mxCell id="AZBeOW5vCCQePYE3pMwj-20" value="Database" style="text;html=1;strokeColor=none;fillColor=none;align=center;verticalAlign=middle;whiteSpace=wrap;rounded=0;fontSize=14;" vertex="1" parent="1">
          <mxGeometry x="230" y="420" width="60" height="20" as="geometry" />
        </mxCell>
        <mxCell id="AZBeOW5vCCQePYE3pMwj-21" style="edgeStyle=orthogonalEdgeStyle;rounded=1;orthogonalLoop=1;jettySize=auto;html=1;exitX=1;exitY=0.5;exitDx=0;exitDy=0;entryX=0.25;entryY=0.23;entryDx=0;entryDy=0;entryPerimeter=0;curved=0;" edge="1" parent="1" source="AZBeOW5vCCQePYE3pMwj-19" target="AZBeOW5vCCQePYE3pMwj-1">
          <mxGeometry relative="1" as="geometry">
            <Array as="points">
              <mxPoint x="300" y="400" />
              <mxPoint x="300" y="247" />
            </Array>
          </mxGeometry>
        </mxCell>
        <mxCell id="AZBeOW5vCCQePYE3pMwj-22" style="edgeStyle=orthogonalEdgeStyle;rounded=1;orthogonalLoop=1;jettySize=auto;html=1;exitX=1;exitY=0.5;exitDx=0;exitDy=0;entryX=0.06;entryY=0.65;entryDx=0;entryDy=0;entryPerimeter=0;curved=0;" edge="1" parent="1" source="AZBeOW5vCCQePYE3pMwj-19" target="AZBeOW5vCCQePYE3pMwj-6">
          <mxGeometry relative="1" as="geometry">
            <Array as="points">
              <mxPoint x="300" y="400" />
              <mxPoint x="300" y="321" />
            </Array>
          </mxGeometry>
        </mxCell>
        <mxCell id="AZBeOW5vCCQePYE3pMwj-24" style="edgeStyle=orthogonalEdgeStyle;rounded=1;orthogonalLoop=1;jettySize=auto;html=1;exitX=1;exitY=0.5;exitDx=0;exitDy=0;entryX=0.06;entryY=0.65;entryDx=0;entryDy=0;entryPerimeter=0;curved=0;" edge="1" parent="1" source="AZBeOW5vCCQePYE3pMwj-19" target="AZBeOW5vCCQePYE3pMwj-4">
          <mxGeometry relative="1" as="geometry">
            <Array as="points">
              <mxPoint x="300" y="400" />
              <mxPoint x="300" y="381" />
            </Array>
          </mxGeometry>
        </mxCell>
        <mxCell id="AZBeOW5vCCQePYE3pMwj-26" style="edgeStyle=orthogonalEdgeStyle;rounded=1;orthogonalLoop=1;jettySize=auto;html=1;exitX=1;exitY=0.5;exitDx=0;exitDy=0;entryX=0.25;entryY=0.23;entryDx=0;entryDy=0;entryPerimeter=0;curved=0;" edge="1" parent="1" source="AZBeOW5vCCQePYE3pMwj-19" target="AZBeOW5vCCQePYE3pMwj-10">
          <mxGeometry relative="1" as="geometry">
            <Array as="points">
              <mxPoint x="300" y="400" />
              <mxPoint x="300" y="435" />
            </Array>
          </mxGeometry>
        </mxCell>
        <mxCell id="AZBeOW5vCCQePYE3pMwj-27" style="edgeStyle=orthogonalEdgeStyle;rounded=1;orthogonalLoop=1;jettySize=auto;html=1;exitX=1;exitY=0.5;exitDx=0;exitDy=0;entryX=0.06;entryY=0.65;entryDx=0;entryDy=0;entryPerimeter=0;curved=0;" edge="1" parent="1" source="AZBeOW5vCCQePYE3pMwj-19" target="AZBeOW5vCCQePYE3pMwj-14">
          <mxGeometry relative="1" as="geometry">
            <Array as="points">
              <mxPoint x="300" y="400" />
              <mxPoint x="300" y="486" />
            </Array>
          </mxGeometry>
        </mxCell>
        <mxCell id="AZBeOW5vCCQePYE3pMwj-28" style="edgeStyle=orthogonalEdgeStyle;rounded=1;orthogonalLoop=1;jettySize=auto;html=1;exitX=1;exitY=0.5;exitDx=0;exitDy=0;entryX=0.06;entryY=0.65;entryDx=0;entryDy=0;entryPerimeter=0;curved=0;" edge="1" parent="1" source="AZBeOW5vCCQePYE3pMwj-19" target="AZBeOW5vCCQePYE3pMwj-12">
          <mxGeometry relative="1" as="geometry">
            <Array as="points">
              <mxPoint x="300" y="400" />
              <mxPoint x="300" y="546" />
            </Array>
          </mxGeometry>
        </mxCell>
        <mxCell id="AZBeOW5vCCQePYE3pMwj-29" value="Text" style="text;html=1;strokeColor=none;fillColor=none;align=center;verticalAlign=middle;whiteSpace=wrap;rounded=0;fontSize=12;" vertex="1" parent="1">
          <mxGeometry x="345" y="253" width="25" height="10" as="geometry" />
        </mxCell>
        <mxCell id="AZBeOW5vCCQePYE3pMwj-33" value="Text" style="text;html=1;strokeColor=none;fillColor=none;align=center;verticalAlign=middle;whiteSpace=wrap;rounded=0;fontSize=12;" vertex="1" parent="1">
          <mxGeometry x="342.5" y="533" width="25" height="10" as="geometry" />
        </mxCell>
        <mxCell id="AZBeOW5vCCQePYE3pMwj-34" value="Vision" style="text;html=1;strokeColor=none;fillColor=none;align=center;verticalAlign=middle;whiteSpace=wrap;rounded=0;fontSize=12;" vertex="1" parent="1">
          <mxGeometry x="308.5" y="308" width="25" height="10" as="geometry" />
        </mxCell>
        <mxCell id="AZBeOW5vCCQePYE3pMwj-35" value="Vision" style="text;html=1;strokeColor=none;fillColor=none;align=center;verticalAlign=middle;whiteSpace=wrap;rounded=0;fontSize=12;" vertex="1" parent="1">
          <mxGeometry x="345" y="423" width="25" height="10" as="geometry" />
        </mxCell>
        <mxCell id="AZBeOW5vCCQePYE3pMwj-36" value="Audio" style="text;html=1;strokeColor=none;fillColor=none;align=center;verticalAlign=middle;whiteSpace=wrap;rounded=0;fontSize=12;" vertex="1" parent="1">
          <mxGeometry x="345" y="368" width="25" height="10" as="geometry" />
        </mxCell>
        <mxCell id="AZBeOW5vCCQePYE3pMwj-37" value="Audio" style="text;html=1;strokeColor=none;fillColor=none;align=center;verticalAlign=middle;whiteSpace=wrap;rounded=0;fontSize=12;" vertex="1" parent="1">
          <mxGeometry x="308.5" y="472" width="25" height="10" as="geometry" />
        </mxCell>
        <mxCell id="AZBeOW5vCCQePYE3pMwj-39" value="" style="sketch=0;pointerEvents=1;shadow=0;dashed=0;html=1;strokeColor=none;labelPosition=center;verticalLabelPosition=bottom;verticalAlign=top;align=center;fillColor=#505050;shape=mxgraph.mscae.intune.account_portal;fontColor=#ffffff;" vertex="1" parent="1">
          <mxGeometry x="551.25" y="380" width="43" height="50" as="geometry" />
        </mxCell>
        <mxCell id="AZBeOW5vCCQePYE3pMwj-40" value="Router" style="text;html=1;strokeColor=none;fillColor=none;align=center;verticalAlign=middle;whiteSpace=wrap;rounded=0;fontSize=14;" vertex="1" parent="1">
          <mxGeometry x="550" y="432" width="45.5" height="10" as="geometry" />
        </mxCell>
        <mxCell id="AZBeOW5vCCQePYE3pMwj-41" style="edgeStyle=orthogonalEdgeStyle;rounded=1;orthogonalLoop=1;jettySize=auto;html=1;exitX=1;exitY=0.5;exitDx=0;exitDy=0;entryX=0.06;entryY=0.65;entryDx=0;entryDy=0;entryPerimeter=0;curved=0;" edge="1" parent="1" source="AZBeOW5vCCQePYE3pMwj-3" target="AZBeOW5vCCQePYE3pMwj-39">
          <mxGeometry relative="1" as="geometry">
            <Array as="points">
              <mxPoint x="510" y="310" />
              <mxPoint x="510" y="413" />
            </Array>
          </mxGeometry>
        </mxCell>
        <mxCell id="AZBeOW5vCCQePYE3pMwj-43" style="edgeStyle=orthogonalEdgeStyle;rounded=1;orthogonalLoop=1;jettySize=auto;html=1;exitX=1;exitY=0.5;exitDx=0;exitDy=0;entryX=0.06;entryY=0.65;entryDx=0;entryDy=0;entryPerimeter=0;curved=0;" edge="1" parent="1" source="AZBeOW5vCCQePYE3pMwj-9" target="AZBeOW5vCCQePYE3pMwj-39">
          <mxGeometry relative="1" as="geometry">
            <Array as="points">
              <mxPoint x="510" y="510" />
              <mxPoint x="510" y="413" />
            </Array>
          </mxGeometry>
        </mxCell>
        <mxCell id="AZBeOW5vCCQePYE3pMwj-44" value="Agreed&lt;br&gt;Prediction" style="text;html=1;strokeColor=none;fillColor=none;align=center;verticalAlign=middle;whiteSpace=wrap;rounded=0;fontSize=12;" vertex="1" parent="1">
          <mxGeometry x="490" y="293" width="25" height="10" as="geometry" />
        </mxCell>
        <mxCell id="AZBeOW5vCCQePYE3pMwj-45" value="Agreed&lt;br&gt;Prediction" style="text;html=1;strokeColor=none;fillColor=none;align=center;verticalAlign=middle;whiteSpace=wrap;rounded=0;fontSize=12;" vertex="1" parent="1">
          <mxGeometry x="490" y="523" width="25" height="10" as="geometry" />
        </mxCell>
        <mxCell id="AZBeOW5vCCQePYE3pMwj-49" value="Market Return Prediction Team" style="text;html=1;strokeColor=none;fillColor=none;align=center;verticalAlign=middle;whiteSpace=wrap;rounded=0;fontSize=12;fontStyle=1" vertex="1" parent="1">
          <mxGeometry x="308.5" y="570" width="195" height="15" as="geometry" />
        </mxCell>
      </root>
    </mxGraphModel>
  </diagram>
</mxfile>
